<?xml version="1.0" encoding="utf-8"?>
<!-- Generator: Adobe Illustrator 25.1.0, SVG Export Plug-In . SVG Version: 6.00 Build 0)  -->
<svg version="1.1" id="Layer_1" xmlns="http://www.w3.org/2000/svg" xmlns:xlink="http://www.w3.org/1999/xlink" x="0px" y="0px"
	 viewBox="0 0 287 287" style="enable-background:new 0 0 287 287;" xml:space="preserve">
<style type="text/css">
	.st0{clip-path:url(#SVGID_2_);}
	.st1{clip-path:url(#SVGID_4_);}
	.st2{clip-path:url(#SVGID_6_);}
	.st3{fill:#51A6B7;}
	.st4{fill:#57ADBE;}
	.st5{fill:#8CBAC0;}
	.st6{fill:#53A6B7;}
	.st7{fill:#86B2B8;}
	.st8{fill:#92C3C9;}
</style>
<g id="Group_519" transform="translate(-527 -235)">
	<g id="Group_518" transform="translate(527 257)">
		<g id="Group_517">
			<g>
				<defs>
					<rect id="SVGID_1_" x="16.6" y="-0.2" width="253.7" height="243.4"/>
				</defs>
				<clipPath id="SVGID_2_">
					<use xlink:href="#SVGID_1_"  style="overflow:visible;"/>
				</clipPath>
				<g id="Group_516" class="st0">
					<g id="Group_515">
						<g>
							<defs>
								<rect id="SVGID_3_" x="16.6" y="-0.2" width="253.7" height="243.4"/>
							</defs>
							<clipPath id="SVGID_4_">
								<use xlink:href="#SVGID_3_"  style="overflow:visible;"/>
							</clipPath>
							<g id="Group_514" class="st1">
								<g id="Group_513">
									<g>
										<defs>
											<rect id="SVGID_5_" x="16.6" y="-0.2" width="253.7" height="243.4"/>
										</defs>
										<clipPath id="SVGID_6_">
											<use xlink:href="#SVGID_5_"  style="overflow:visible;"/>
										</clipPath>
										<g id="Group_512" class="st2">
											<path id="Path_26" class="st3" d="M185.1,170.6l42.5-24.1l0.6-0.4l42.1,24.8l-13.2,7.4l-29,17.2"/>
											<path id="Path_27" class="st4" d="M270.4,170.9l0,48.9l-42.3,22.8v-48l29.8-16.6L270.4,170.9z"/>
											<path id="Path_28" class="st5" d="M228.1,194.6l-0.1,48.2l-41.8-24.1l0,0l-1.1-48.1L228.1,194.6z"/>
											<path id="Path_29" class="st6" d="M227.6,146.6l-40.8,23.6h0L227.6,146.6z"/>
											<path id="Path_30" class="st7" d="M186.2,24.3l-0.4,0.2V24L186.2,24.3z"/>
											<path id="Path_31" class="st4" d="M185.8,24.5l0,48.3l-42.2,24.4V48.6l0.2,0.1L185.8,24.5z"/>
											<path id="Path_32" class="st7" d="M185.8,24v0.4l-42,24.2l-0.2-0.1v-0.1l-0.2-0.1v-0.1L185.7,24L185.8,24z"/>
											<path id="Path_33" class="st5" d="M185.8,23.9v0.2l-0.2-0.1L185.8,23.9z"/>
											<path id="Path_34" class="st7" d="M185.7,24l-42.2,24.4v0.1l-41.9-24.2l42.3-24.4L185.7,24z"/>
											<path id="Path_35" class="st8" d="M143.8,194.3v48.9l0,0L143.8,194.3L143.8,194.3z"/>
											<path id="Path_36" class="st8" d="M143.8,194.3L143.8,194.3L143.8,194.3L143.8,194.3L143.8,194.3L143.8,194.3z"/>
											<path id="Path_37" class="st3" d="M143.8,194.3L143.8,194.3L143.8,194.3L143.8,194.3L143.8,194.3z"/>
											<path id="Path_38" class="st3" d="M143.8,194.2L143.8,194.2L143.8,194.2L143.8,194.2z"/>
											<path id="Path_39" class="st7" d="M143.6,97.2v0.1l-0.1-0.1l0,0L143.6,97.2L143.6,97.2z"/>
											<path id="Path_40" class="st7" d="M143.6,48.5L143.6,48.5l-0.2,0v-0.1L143.6,48.5z"/>
											<path id="Path_41" class="st5" d="M143.5,97.3L143.5,97.3L143.5,97.3l0-48.8l0.2,0.1v48.6L143.5,97.3z"/>
											<path id="Path_42" class="st6" d="M143.5,97.4L143.5,97.4L143.5,97.4L143.5,97.4z"/>
											<path id="Path_43" class="st7" d="M143.5,48.4L143.5,48.4l-41.8-24.1l-0.2-0.1l0.1,0L143.5,48.4z"/>
											<path id="Path_44" class="st6" d="M143.4,97.3l-41.5-24L143.4,97.3z"/>
											<path id="Path_45" class="st8" d="M143.4,97.3l-41.5-24l-0.6-0.4l0,0V24.1l0.3,0.2l-0.1,0l0.2,0.1l41.8,24.1L143.4,97.3
												L143.4,97.3L143.4,97.3L143.4,97.3z"/>
											<path id="Path_46" class="st6" d="M101.4,170.8l0,47.2L101.4,170.8L101.4,170.8z"/>
											<path id="Path_47" class="st3" d="M101.4,218.7L101.4,218.7L101.4,218.7L101.4,218.7z"/>
											<path id="Path_48" class="st7" d="M101.2,170.8l0.8-0.2l-0.7,47.4v0.7L59,243.2v-47.9"/>
											<path id="Path_49" class="st6" d="M101.2,73L101.2,73L101.2,73L101.2,73z"/>
											
												<rect id="Rectangle_58" x="101.2" y="121.9" transform="matrix(0.7074 -0.7068 0.7068 0.7074 -56.5416 107.2423)" class="st3" width="0" height="0"/>
											<rect id="Rectangle_59" x="101.2" y="121.9" class="st3" width="0" height="0"/>
											<path id="Path_50" class="st6" d="M101.2,121.9L101.2,121.9L101.2,121.9L101.2,121.9z"/>
											<path id="Path_51" class="st8" d="M101.2,121.9L101.2,121.9L101.2,121.9L101.2,121.9z"/>
											<path id="Path_52" class="st5" d="M59.1,195.6L16.6,171l42.2-24.6l43.2,24.2"/>
											<path id="Path_53" class="st8" d="M59,242.7v0.2l-42.4-24.1V171l42.2,24.4l0.1-0.1L59,242.7z"/>
											<path id="Path_54" class="st8" d="M58.9,97.5l42.3,24.4l0,0L58.9,97.5L58.9,97.5L58.9,97.5z"/>
											<path id="Path_55" class="st3" d="M143.3,97.1l40.8-23.6l2-1l42,25l-42,24"/>
										</g>
									</g>
								</g>
							</g>
						</g>
					</g>
				</g>
			</g>
		</g>
		<path id="Path_56" class="st8" d="M101.4,218.8l42.4,24.1v-0.2l0-48.5l-41.7-23.7L101.4,218.8z"/>
		<path id="Path_57" class="st7" d="M143.8,194.2l-0.1,48.8l42.4-24.5v-0.7l-1-47.2L143.8,194.2z"/>
		<path id="Path_58" class="st8" d="M58.9,146.4l0.4-49l0.3,0.2l-0.1,0l0.2,0.1l41.8,24.1v48.8l0,0v0.1l0,0"/>
		<path id="Path_59" class="st5" d="M101.1,121.7L58.7,97.1l42.2-24.6l43.2,24.2"/>
		<path id="Path_60" class="st4" d="M186.2,121.3l41.9-23.7l0.1,48.7l-43,24.3"/>
	</g>
</g>
</svg>
