<svg id="Layer_1" data-name="Layer 1" xmlns="http://www.w3.org/2000/svg" xmlns:xlink="http://www.w3.org/1999/xlink" viewBox="0 0 803.22 243.38">
  <defs>
    <style>
      .cls-1 {
        fill: none;
      }

      .cls-2 {
        clip-path: url(#clip-path);
      }

      .cls-3 {
        fill: #51a6b7;
      }

      .cls-4 {
        fill: #57adbe;
      }

      .cls-5 {
        fill: #8cbac0;
      }

      .cls-6 {
        fill: #53a6b7;
      }

      .cls-7 {
        fill: #86b2b8;
      }

      .cls-8 {
        fill: #92c3c9;
      }

      .cls-9 {
        isolation: isolate;
      }

      .cls-10 {
        fill: #262a22;
      }
    </style>
    <clipPath id="clip-path" transform="translate(0 -27.31)">
      <rect class="cls-1" y="27.31" width="253.72" height="243.38"/>
    </clipPath>
  </defs>
  <g id="Group_545" data-name="Group 545">
    <g id="Group_518" data-name="Group 518">
      <g id="Group_517" data-name="Group 517">
        <g class="cls-2">
          <g id="Group_516" data-name="Group 516">
            <g id="Group_515" data-name="Group 515">
              <g class="cls-2">
                <g id="Group_514" data-name="Group 514">
                  <g id="Group_513" data-name="Group 513">
                    <g class="cls-2">
                      <g id="Group_512" data-name="Group 512">
                        <path id="Path_26" data-name="Path 26" class="cls-3" d="M168.45,198.11,211,174.06l.63-.36,42.1,24.84L240.45,206l-29,17.16" transform="translate(0 -27.31)"/>
                        <path id="Path_27" data-name="Path 27" class="cls-4" d="M253.72,198.43v48.93l-42.26,22.75v-48l29.77-16.59Z" transform="translate(0 -27.31)"/>
                        <path id="Path_28" data-name="Path 28" class="cls-5" d="M211.45,222.11l-.12,48.24-41.8-24.11h0l-1.07-48.12Z" transform="translate(0 -27.31)"/>
                        <path id="Path_29" data-name="Path 29" class="cls-6" d="M211,174.06l-40.81,23.57h0Z" transform="translate(0 -27.31)"/>
                        <path id="Path_30" data-name="Path 30" class="cls-7" d="M169.57,51.77l-.38.22v-.44Z" transform="translate(0 -27.31)"/>
                        <path id="Path_31" data-name="Path 31" class="cls-4" d="M169.19,52l0,48.32L127,124.69V76.1l.22.13Z" transform="translate(0 -27.31)"/>
                        <path id="Path_32" data-name="Path 32" class="cls-7" d="M169.19,51.55V52l-42,24.24L127,76.1V76l-.16-.09v-.1L169,51.46Z" transform="translate(0 -27.31)"/>
                        <path id="Path_33" data-name="Path 33" class="cls-5" d="M169.19,51.37v.18l-.16-.09Z" transform="translate(0 -27.31)"/>
                        <path id="Path_34" data-name="Path 34" class="cls-7" d="M169,51.46,126.82,75.84v.1L84.89,51.73,127.2,27.31Z" transform="translate(0 -27.31)"/>
                        <path id="Path_35" data-name="Path 35" class="cls-8" d="M127.17,221.81v48.87h0V221.8Z" transform="translate(0 -27.31)"/>
                        <path id="Path_36" data-name="Path 36" class="cls-8" d="M127.17,221.79v0h0v0h0Z" transform="translate(0 -27.31)"/>
                        <path id="Path_37" data-name="Path 37" class="cls-3" d="M127.15,221.76v0h0Z" transform="translate(0 -27.31)"/>
                        <path id="Path_38" data-name="Path 38" class="cls-3" d="M127.13,221.75h0Z" transform="translate(0 -27.31)"/>
                        <path id="Path_39" data-name="Path 39" class="cls-7" d="M127,124.73v.14l-.15-.09h0l.14-.08Z" transform="translate(0 -27.31)"/>
                        <path id="Path_40" data-name="Path 40" class="cls-7" d="M127,76v.07l-.16-.09v-.07Z" transform="translate(0 -27.31)"/>
                        <path id="Path_41" data-name="Path 41" class="cls-5" d="M126.84,124.77h0V76l.16.09v48.59Z" transform="translate(0 -27.31)"/>
                        <path id="Path_42" data-name="Path 42" class="cls-6" d="M126.83,124.87h0l0,0Z" transform="translate(0 -27.31)"/>
                        <path id="Path_43" data-name="Path 43" class="cls-7" d="M126.82,75.94V76L85,51.89l-.2-.12.06,0Z" transform="translate(0 -27.31)"/>
                        <path id="Path_44" data-name="Path 44" class="cls-6" d="M126.79,124.85l-41.55-24Z" transform="translate(0 -27.31)"/>
                        <path id="Path_45" data-name="Path 45" class="cls-8" d="M126.79,124.85l-41.55-24-.62-.36h0V51.57l.28.16-.06,0,.2.12L126.82,76v48.76h0v.09Z" transform="translate(0 -27.31)"/>
                        <path id="Path_46" data-name="Path 46" class="cls-6" d="M84.79,198.25v0Z" transform="translate(0 -27.31)"/>
                        <path id="Path_47" data-name="Path 47" class="cls-3" d="M84.78,246.23h0Z" transform="translate(0 -27.31)"/>
                        <path id="Path_48" data-name="Path 48" class="cls-7" d="M84.61,198.35l.84-.24-.67,47.39v.73L42.4,270.69V222.75" transform="translate(0 -27.31)"/>
                        <path id="Path_49" data-name="Path 49" class="cls-6" d="M84.61,100.49h0Z" transform="translate(0 -27.31)"/>
                        <rect id="Rectangle_58" data-name="Rectangle 58" class="cls-3" x="84.61" y="149.4" width="0.01" height="0.01" transform="translate(-80.85 76.22) rotate(-44.98)"/>
                        <rect id="Rectangle_59" data-name="Rectangle 59" class="cls-3" x="84.6" y="122.1" width="0.01" height="0.01"/>
                        <path id="Path_50" data-name="Path 50" class="cls-6" d="M84.6,149.4h0Z" transform="translate(0 -27.31)"/>
                        <path id="Path_51" data-name="Path 51" class="cls-8" d="M84.57,149.42h0Z" transform="translate(0 -27.31)"/>
                        <path id="Path_52" data-name="Path 52" class="cls-5" d="M42.45,223.11,0,198.49l42.24-24.6,43.21,24.22" transform="translate(0 -27.31)"/>
                        <path id="Path_53" data-name="Path 53" class="cls-8" d="M42.38,270.24v.23L0,246.34V198.46l42.23,24.38.14-.08Z" transform="translate(0 -27.31)"/>
                        <path id="Path_54" data-name="Path 54" class="cls-8" d="M42.25,125l42.34,24.45h0L42.24,125v0Z" transform="translate(0 -27.31)"/>
                        <path id="Path_55" data-name="Path 55" class="cls-3" d="M126.68,124.64l40.81-23.57,2-1,42,25-42,24" transform="translate(0 -27.31)"/>
                      </g>
                    </g>
                  </g>
                </g>
              </g>
            </g>
          </g>
        </g>
      </g>
      <path id="Path_56" data-name="Path 56" class="cls-8" d="M84.76,246.32l42.37,24.13v-.23l0-48.46-41.7-23.65Z" transform="translate(0 -27.31)"/>
      <path id="Path_57" data-name="Path 57" class="cls-7" d="M127.15,221.71l-.08,48.78L169.45,246v-.73l-1-47.19Z" transform="translate(0 -27.31)"/>
      <path id="Path_58" data-name="Path 58" class="cls-8" d="M42.23,173.88l.38-48.95.28.16-.06,0,.2.12,41.79,24.12v48.76h0v.09l0,0" transform="translate(0 -27.31)"/>
      <path id="Path_59" data-name="Path 59" class="cls-5" d="M84.47,149.23,42,124.61,84.26,100l43.21,24.22" transform="translate(0 -27.31)"/>
      <path id="Path_60" data-name="Path 60" class="cls-4" d="M169.55,148.76l41.9-23.65.1,48.65-43,24.3" transform="translate(0 -27.31)"/>
    </g>
    <g id="Group_548" data-name="Group 548">
      <g id="DataJoint_" data-name="DataJoint " class="cls-9">
        <g class="cls-9">
          <path class="cls-10" d="M301.42,119.19V39.86a1.6,1.6,0,0,1,1.81-1.81H335q8.91,0,14,5.1t5.09,14v44.77q0,8.9-5.09,14T335,121H303.23A1.6,1.6,0,0,1,301.42,119.19Zm10.71-6.45H333.8q10.83,0,10.84-11.22v-44q0-11.22-10.84-11.22H312.13c-.86,0-1.29.39-1.29,1.16v64.11C310.84,112.36,311.27,112.74,312.13,112.74Z" transform="translate(0 -27.31)"/>
          <path class="cls-10" d="M396.37,121h-6.71q-8.91,0-14-5t-5.1-14.06V74.3q0-9,5.1-14.06t14-5h28A1.6,1.6,0,0,1,419.46,57v62.17a1.6,1.6,0,0,1-1.81,1.81h-5.8a1.6,1.6,0,0,1-1.81-1.81v-5h-.52Q406.3,121,396.37,121ZM410,100.88V64.63c0-.78-.43-1.16-1.29-1.16H390.69Q380,63.47,380,74.69v26.83q0,11.22,10.71,11.22H398q5.81,0,8.9-3.09T410,100.88Z" transform="translate(0 -27.31)"/>
          <path class="cls-10" d="M439.71,63.47h-7.1q-1.8,0-1.8-1.68V57a1.59,1.59,0,0,1,1.8-1.81h7.1c.86,0,1.29-.39,1.29-1.16V43a1.59,1.59,0,0,1,1.8-1.81h5.81c1.11,0,1.68.6,1.68,1.81V54.05c0,.77.47,1.16,1.42,1.16h13.67c1.29,0,1.93.6,1.93,1.81v4.77c0,1.12-.64,1.68-1.93,1.68H451.71c-.95,0-1.42.38-1.42,1.16v37.15q0,11,11.35,11h5c1.29,0,1.93.61,1.93,1.81v4.77c0,1.12-.64,1.68-1.93,1.68h-6.19q-8.91,0-14.19-5T441,102.17V64.63C441,63.85,440.57,63.47,439.71,63.47Z" transform="translate(0 -27.31)"/>
          <path class="cls-10" d="M506.79,121h-6.71q-8.9,0-14-5T481,101.91V74.3q0-9,5.09-14.06t14-5h28A1.6,1.6,0,0,1,529.88,57v62.17a1.6,1.6,0,0,1-1.81,1.81h-5.8a1.6,1.6,0,0,1-1.81-1.81v-5H520Q516.71,121,506.79,121Zm13.67-20.12V64.63c0-.78-.43-1.16-1.29-1.16H501.11q-10.71,0-10.71,11.22v26.83q0,11.22,10.71,11.22h7.35q5.81,0,8.91-3.09T520.46,100.88Z" transform="translate(0 -27.31)"/>
          <path class="cls-10" d="M586.89,38.05h5.81a1.48,1.48,0,0,1,1.68,1.68v62.18q0,9-5.1,14.06t-13.87,5h-12.9q-8.89,0-14-5.1t-5.1-14V90.81a1.59,1.59,0,0,1,1.81-1.8H551a1.59,1.59,0,0,1,1.81,1.8v10.71q0,11.22,10.83,11.22h10.58q10.85,0,10.84-11.22V39.86A1.6,1.6,0,0,1,586.89,38.05Z" transform="translate(0 -27.31)"/>
          <path class="cls-10" d="M641.72,121h-11.1q-8.89,0-14-5t-5.1-14.06V74.3q0-9,5.1-14.06t14-5h11.1q8.89,0,14,5t5.1,14.06v27.61q0,9-5.1,14.06T641.72,121Zm-10.06-8.26h9q10.83,0,10.83-11.09V74.56q0-11.08-10.83-11.09h-9q-10.85,0-10.84,11.09v27.09Q620.82,112.75,631.66,112.74Z" transform="translate(0 -27.31)"/>
          <path class="cls-10" d="M678,44.37V32.25c0-1.21.56-1.81,1.67-1.81h5.94a1.59,1.59,0,0,1,1.8,1.81V44.37a1.59,1.59,0,0,1-1.8,1.81h-5.94C678.53,46.18,678,45.58,678,44.37Zm0,74.82V57c0-1.21.56-1.81,1.67-1.81h5.94a1.59,1.59,0,0,1,1.8,1.81v62.17a1.59,1.59,0,0,1-1.8,1.81h-5.81A1.59,1.59,0,0,1,678,119.19Z" transform="translate(0 -27.31)"/>
          <path class="cls-10" d="M713.44,121h-5.8a1.6,1.6,0,0,1-1.81-1.81V57a1.6,1.6,0,0,1,1.81-1.81h5.8A1.6,1.6,0,0,1,715.25,57v5h.51q3.22-6.84,13.16-6.84h7.23q8.76,0,13.67,5t4.9,14.06v44.89a1.59,1.59,0,0,1-1.8,1.81h-5.81a1.6,1.6,0,0,1-1.81-1.81V74.69q0-11.22-10.83-11.22h-7.23q-5.79,0-8.9,3.09t-3.09,8.77v43.86A1.6,1.6,0,0,1,713.44,121Z" transform="translate(0 -27.31)"/>
          <path class="cls-10" d="M774.33,63.47h-7.1q-1.8,0-1.8-1.68V57a1.59,1.59,0,0,1,1.8-1.81h7.1c.86,0,1.29-.39,1.29-1.16V43a1.59,1.59,0,0,1,1.8-1.81h5.81c1.12,0,1.68.6,1.68,1.81V54.05c0,.77.47,1.16,1.42,1.16H800c1.29,0,1.93.6,1.93,1.81v4.77c0,1.12-.64,1.68-1.93,1.68H786.33c-1,0-1.42.38-1.42,1.16v37.15q0,11,11.35,11h5c1.29,0,1.93.61,1.93,1.81v4.77c0,1.12-.64,1.68-1.93,1.68H795.1q-8.91,0-14.19-5t-5.29-13.86V64.63C775.62,63.85,775.19,63.47,774.33,63.47Z" transform="translate(0 -27.31)"/>
        </g>
      </g>
      <g id="_LabBook" data-name=" LabBook" class="cls-9">
        <g class="cls-9">
          <path class="cls-10" d="M365,252H322.51a2.39,2.39,0,0,1-2.71-2.71V171.76a2.4,2.4,0,0,1,2.71-2.71h11a2.39,2.39,0,0,1,2.7,2.71v64.5c0,1,.52,1.42,1.55,1.42H365c1.72,0,2.58.95,2.58,2.84v8.77C367.53,251.1,366.67,252,365,252Z" transform="translate(0 -27.31)"/>
          <path class="cls-10" d="M399.52,252h-3.09q-10.2,0-15.74-5.42T375.14,231V207.24q0-10.2,5.55-15.61t15.74-5.42h29.79c1.9,0,2.84.9,2.84,2.71v60.37c0,1.81-.94,2.71-2.84,2.71H415.39a2.39,2.39,0,0,1-2.71-2.71V245h-.52a9.73,9.73,0,0,1-5,5.23A17.31,17.31,0,0,1,399.52,252Zm13.16-24V201.82c0-.95-.52-1.42-1.55-1.42H399c-2.76,0-4.69.58-5.81,1.74s-1.68,3.12-1.68,5.87V230.2q0,4.13,1.68,5.87c1.12,1.16,3.05,1.74,5.81,1.74h4.77Q412.67,237.81,412.68,228Z" transform="translate(0 -27.31)"/>
          <path class="cls-10" d="M443.25,249.29V164a2.4,2.4,0,0,1,2.71-2.71h11a2.39,2.39,0,0,1,2.7,2.71v29h.52a10,10,0,0,1,5-5.29,16.72,16.72,0,0,1,7.61-1.81h4.13q10.18,0,15.74,5.42T498.21,207v24q0,10.2-5.55,15.61T476.92,252H446A2.39,2.39,0,0,1,443.25,249.29Zm17.8-11.48h13.16q4.13,0,5.87-1.74t1.74-5.87V207.75q0-4.12-1.74-5.87t-5.87-1.74h-5.67q-8.91,0-8.91,9.81v26.44A1.26,1.26,0,0,0,461.05,237.81Z" transform="translate(0 -27.31)"/>
          <path class="cls-10" d="M512.39,249.29V171.76a2.4,2.4,0,0,1,2.71-2.71h31q10.2,0,15.74,5.42T567.35,190v5.29q0,11-10.19,14.19a13.4,13.4,0,0,1,8.25,4.19q3.11,3.42,3.1,9.74v7.74q0,10.07-5.55,15.48T547.35,252H515.1A2.4,2.4,0,0,1,512.39,249.29Zm17.81-46.57h13.15q4.14,0,6.07-1.74t1.93-5.74v-5q0-4-1.87-5.74t-6-1.74H530.2a1.25,1.25,0,0,0-1.42,1.42V201.3A1.25,1.25,0,0,0,530.2,202.72Zm0,35.61h14.44q4.26,0,6.13-1.75t1.87-5.74v-7.48c0-2.66-.64-4.56-1.93-5.67s-3.4-1.68-6.32-1.68H530.2a1.25,1.25,0,0,0-1.42,1.42v19.48A1.26,1.26,0,0,0,530.2,238.33Z" transform="translate(0 -27.31)"/>
          <path class="cls-10" d="M614.17,252H602.69q-10.19,0-15.73-5.42T581.41,231V207.24q0-10.2,5.55-15.61t15.73-5.42h11.48q10.07,0,15.68,5.48t5.61,15.55V231q0,10.07-5.61,15.55T614.17,252Zm-9-14.06h6.58q4.13,0,5.87-1.68c1.16-1.11,1.74-3,1.74-5.8V207.75q0-4.12-1.74-5.8t-5.87-1.68h-6.58q-4.12,0-5.8,1.68t-1.68,5.8v22.71c0,2.75.56,4.69,1.68,5.8S602.39,237.94,605.14,237.94Z" transform="translate(0 -27.31)"/>
          <path class="cls-10" d="M679.83,252H668.35q-10.19,0-15.74-5.42T647.07,231V207.24q0-10.2,5.54-15.61t15.74-5.42h11.48q10.06,0,15.68,5.48t5.61,15.55V231q0,10.07-5.61,15.55T679.83,252Zm-9-14.06h6.58q4.13,0,5.87-1.68c1.16-1.11,1.74-3,1.74-5.8V207.75q0-4.12-1.74-5.8t-5.87-1.68H670.8q-4.12,0-5.8,1.68t-1.68,5.8v22.71c0,2.75.56,4.69,1.68,5.8S668.05,237.94,670.8,237.94Z" transform="translate(0 -27.31)"/>
          <path class="cls-10" d="M727.69,252h-11a2.39,2.39,0,0,1-2.71-2.71V164a2.4,2.4,0,0,1,2.71-2.71h11A2.4,2.4,0,0,1,730.4,164v85.27A2.39,2.39,0,0,1,727.69,252Zm24-65.79H764.2a2.16,2.16,0,0,1,2.06.9,2.25,2.25,0,0,1-.38,2.32l-17.16,28.26v.51l17.93,30.58a2,2,0,0,1,.13,2.25,2.58,2.58,0,0,1-2.32,1h-11.1a7,7,0,0,1-3.16-.52,6,6,0,0,1-2-2.19l-16.38-28.77a4.15,4.15,0,0,1,0-4.25l15.48-27.48A4.67,4.67,0,0,1,751.68,186.21Z" transform="translate(0 -27.31)"/>
        </g>
      </g>
    </g>
  </g>
</svg>
